<?xml version="1.0" encoding="UTF-8" standalone="no"?>
<svg
   xmlns:dc="http://purl.org/dc/elements/1.1/"
   xmlns:cc="http://creativecommons.org/ns#"
   xmlns:rdf="http://www.w3.org/1999/02/22-rdf-syntax-ns#"
   xmlns:svg="http://www.w3.org/2000/svg"
   xmlns="http://www.w3.org/2000/svg"
   id="svg7014"
   version="1.1"
   viewBox="0 0 85.500206 79.319366"
   height="79.319366mm"
   width="85.500206mm">
  <defs
     id="defs7008">
    <clipPath
       id="clipPath1012"
       clipPathUnits="userSpaceOnUse">
      <path
         id="path1010"
         d="M 0,0 H 419.528 V 595.276 H 0 Z" />
    </clipPath>
  </defs>
  <metadata
     id="metadata7011">
    <rdf:RDF>
      <cc:Work
         rdf:about="">
        <dc:format>image/svg+xml</dc:format>
        <dc:type
           rdf:resource="http://purl.org/dc/dcmitype/StillImage" />
        <dc:title></dc:title>
      </cc:Work>
    </rdf:RDF>
  </metadata>
  <g
     transform="translate(214.3513,-133.36412)"
     id="layer1">
    <g
       transform="matrix(0.35277777,0,0,-0.35277777,-276.85124,212.68349)"
       id="g1006">
      <g
         clip-path="url(#clipPath1012)"
         id="g1008">
        <g
           transform="translate(218.4056,92.6321)"
           id="g1014">
          <path
             id="path1016"
             style="fill:#3eb7ad;fill-opacity:1;fill-rule:nonzero;stroke:none"
             d="m 0,0 c -3.006,-7.257 -11.326,-10.703 -18.583,-7.697 -7.256,3.006 -10.703,11.325 -7.697,18.582 3.006,7.257 11.326,10.703 18.583,7.698 C -0.44,15.577 3.006,7.257 0,0" />
        </g>
        <g
           transform="translate(298.4905,209.8822)"
           id="g1018">
          <path
             id="path1020"
             style="fill:#3eb7ad;fill-opacity:1;fill-rule:nonzero;stroke:none"
             d="m 0,0 c 7.257,3.006 15.576,-0.44 18.583,-7.697 3.006,-7.257 -0.441,-15.577 -7.697,-18.583 -7.258,-3.006 -15.577,0.441 -18.583,7.697 C -10.703,-11.326 -7.257,-3.006 0,0" />
        </g>
        <g
           transform="translate(256.6611,28.1253)"
           id="g1022">
          <path
             id="path1024"
             style="fill:#838fc7;fill-opacity:1;fill-rule:nonzero;stroke:none"
             d="m 0,0 c 0,-5.469 -4.434,-9.903 -9.903,-9.903 -5.47,0 -9.903,4.434 -9.903,9.903 0,5.469 4.433,9.903 9.903,9.903 C -4.434,9.903 0,5.469 0,0" />
        </g>
        <g
           transform="translate(290.9413,110.886)"
           id="g1026">
          <path
             id="path1028"
             style="fill:#838fc7;fill-opacity:1;fill-rule:nonzero;stroke:none"
             d="m 0,0 c -3.867,-3.868 -10.138,-3.868 -14.005,0 -3.867,3.867 -3.867,10.137 0,14.005 3.867,3.867 10.138,3.867 14.005,0 C 3.868,10.137 3.868,3.867 0,0" />
        </g>
        <g
           transform="translate(373.702,164.9723)"
           id="g1030">
          <path
             id="path1032"
             style="fill:#838fc7;fill-opacity:1;fill-rule:nonzero;stroke:none"
             d="m 0,0 c 5.469,0 9.903,-4.434 9.903,-9.903 0,-5.469 -4.434,-9.903 -9.903,-9.903 -5.469,0 -9.903,4.434 -9.903,9.903 C -9.903,-4.434 -5.469,0 0,0" />
        </g>
        <g
           transform="translate(265.5703,72.9147)"
           id="g1034">
          <path
             id="path1036"
             style="fill:#532d77;fill-opacity:1;fill-rule:nonzero;stroke:none"
             d="m 0,0 c -2.093,-5.053 -7.886,-7.452 -12.939,-5.359 -5.053,2.093 -7.452,7.886 -5.359,12.939 2.092,5.052 7.886,7.452 12.939,5.359 C -0.307,10.846 2.093,5.053 0,0" />
        </g>
        <g
           transform="translate(426.0706,154.5551)"
           id="g1038">
          <path
             id="path1040"
             style="fill:#532d77;fill-opacity:1;fill-rule:nonzero;stroke:none"
             d="m 0,0 c 5.053,-2.093 7.453,-7.886 5.359,-12.939 -2.093,-5.052 -7.885,-7.453 -12.938,-5.359 -5.054,2.093 -7.453,7.886 -5.36,12.939 C -10.846,-0.306 -5.053,2.093 0,0" />
        </g>
        <g
           transform="translate(321.3328,154.5551)"
           id="g1042">
          <path
             id="path1044"
             style="fill:#532d77;fill-opacity:1;fill-rule:nonzero;stroke:none"
             d="m 0,0 c 5.053,2.093 10.846,-0.306 12.939,-5.359 2.093,-5.053 -0.307,-10.846 -5.36,-12.939 -5.053,-2.094 -10.845,0.307 -12.938,5.359 C -7.453,-7.886 -5.053,-2.093 0,0" />
        </g>
        <g
           transform="translate(254.8431,147.1645)"
           id="g1046">
          <path
             id="path1048"
             style="fill:#532d77;fill-opacity:1;fill-rule:nonzero;stroke:none"
             d="m 0,0 c -5.554,-5.554 -14.56,-5.554 -20.114,0 -5.554,5.554 -5.554,14.56 0,20.114 5.554,5.554 14.56,5.554 20.114,0 C 5.554,14.56 5.554,5.554 0,0" />
        </g>
        <g
           transform="translate(205.6102,28.3062)"
           id="g1050">
          <path
             id="path1052"
             style="fill:#532d77;fill-opacity:1;fill-rule:nonzero;stroke:none"
             d="m 0,0 c 0,-7.855 -6.367,-14.223 -14.222,-14.223 -7.855,0 -14.223,6.368 -14.223,14.223 0,7.855 6.368,14.222 14.223,14.222 C -6.367,14.222 0,7.855 0,0" />
        </g>
        <g
           transform="translate(373.702,224.8423)"
           id="g1054">
          <path
             id="path1056"
             style="fill:#532d77;fill-opacity:1;fill-rule:nonzero;stroke:none"
             d="m 0,0 c 7.855,0 14.222,-6.367 14.222,-14.222 0,-7.855 -6.367,-14.223 -14.222,-14.223 -7.855,0 -14.223,6.368 -14.223,14.223 C -14.223,-6.367 -7.855,0 0,0" />
        </g>
        <g
           transform="translate(296.86,144.288)"
           id="g1058">
          <path
             id="path1060"
             style="fill:#532d77;fill-opacity:1;fill-rule:nonzero;stroke:none"
             d="m 0,0 c -5.428,-3.689 -12.819,-2.279 -16.508,3.149 -3.69,5.428 -2.28,12.819 3.149,16.508 5.428,3.689 12.819,2.279 16.508,-3.149 C 6.838,11.08 5.428,3.689 0,0" />
        </g>
        <g
           transform="translate(400.019,166.0866)"
           id="g1062">
          <path
             id="path1064"
             style="fill:#532d77;fill-opacity:1;fill-rule:nonzero;stroke:none"
             d="m 0,0 c -6.447,1.229 -10.676,7.453 -9.446,13.9 1.23,6.447 7.453,10.676 13.9,9.446 C 10.901,22.116 15.13,15.893 13.9,9.446 12.671,2.999 6.447,-1.23 0,0" />
        </g>
        <g
           transform="translate(235.7406,54.4429)"
           id="g1066">
          <path
             id="path1068"
             style="fill:#532d77;fill-opacity:1;fill-rule:nonzero;stroke:none"
             d="m 0,0 c -1.229,-6.447 -7.453,-10.676 -13.9,-9.446 -6.447,1.23 -10.676,7.452 -9.446,13.9 1.23,6.446 7.453,10.676 13.9,9.446 C -2.999,12.67 1.23,6.447 0,0" />
        </g>
        <g
           transform="translate(258.4159,105.235)"
           id="g1070">
          <path
             id="path1072"
             style="fill:#532d77;fill-opacity:1;fill-rule:nonzero;stroke:none"
             d="m 0,0 c -3.604,-5.485 -10.971,-7.011 -16.457,-3.408 -5.486,3.604 -7.011,10.971 -3.408,16.456 3.603,5.486 10.971,7.012 16.457,3.409 C 2.077,12.854 3.603,5.486 0,0" />
        </g>
        <g
           transform="translate(345.2204,165.6561)"
           id="g1074">
          <path
             id="path1076"
             style="fill:#532d77;fill-opacity:1;fill-rule:nonzero;stroke:none"
             d="m 0,0 c -6.427,-1.331 -12.715,2.8 -14.047,9.227 -1.33,6.427 2.8,12.715 9.227,14.046 C 1.607,24.604 7.896,20.474 9.227,14.047 10.558,7.62 6.427,1.331 0,0" />
        </g>
        <g
           transform="translate(236.1711,-0.3557)"
           id="g1078">
          <path
             id="path1080"
             style="fill:#532d77;fill-opacity:1;fill-rule:nonzero;stroke:none"
             d="m 0,0 c 1.331,-6.427 -2.8,-12.716 -9.227,-14.047 -6.427,-1.331 -12.716,2.8 -14.046,9.227 -1.331,6.427 2.8,12.716 9.226,14.047 C -7.62,10.558 -1.331,6.427 0,0" />
        </g>
        <g
           transform="translate(323.1132,103.5912)"
           id="g1082">
          <path
             id="path1084"
             style="fill:#272252;fill-opacity:1;fill-rule:nonzero;stroke:none"
             d="m 0,0 c -3.526,-2.364 -8.301,-1.422 -10.666,2.105 -2.364,3.526 -1.421,8.301 2.105,10.666 3.527,2.363 8.302,1.421 10.666,-2.105 C 4.469,7.139 3.527,2.364 0,0" />
        </g>
        <g
           transform="translate(284.5681,45.7163)"
           id="g1086">
          <path
             id="path1088"
             style="fill:#272252;fill-opacity:1;fill-rule:nonzero;stroke:none"
             d="m 0,0 c -0.822,-4.165 -4.865,-6.875 -9.03,-6.054 -4.165,0.822 -6.875,4.865 -6.053,9.031 0.822,4.165 4.864,6.875 9.03,6.053 C -1.888,8.208 0.822,4.165 0,0" />
        </g>
        <g
           transform="translate(394.2691,132.3425)"
           id="g1090">
          <path
             id="path1092"
             style="fill:#272252;fill-opacity:1;fill-rule:nonzero;stroke:none"
             d="m 0,0 c 4.165,-0.822 6.876,-4.865 6.054,-9.03 -0.822,-4.165 -4.865,-6.875 -9.031,-6.053 -4.165,0.822 -6.875,4.865 -6.053,9.029 C -8.208,-1.888 -4.165,0.822 0,0" />
        </g>
        <g
           transform="translate(284.6215,10.2671)"
           id="g1094">
          <path
             id="path1096"
             style="fill:#272252;fill-opacity:1;fill-rule:nonzero;stroke:none"
             d="m 0,0 c 0.834,-4.163 -1.864,-8.214 -6.026,-9.048 -4.163,-0.835 -8.214,1.864 -9.049,6.026 -0.834,4.163 1.864,8.214 6.027,9.048 C -4.886,6.861 -0.835,4.163 0,0" />
        </g>
        <g
           transform="translate(298.0846,78.4869)"
           id="g1098">
          <path
             id="path1100"
             style="fill:#272252;fill-opacity:1;fill-rule:nonzero;stroke:none"
             d="m 0,0 c -2.353,-3.534 -7.126,-4.49 -10.659,-2.137 -3.534,2.354 -4.49,7.126 -2.137,10.66 2.353,3.533 7.126,4.49 10.659,2.137 C 1.397,8.306 2.353,3.534 0,0" />
        </g>
        <g
           transform="translate(352.8217,132.2804)"
           id="g1102">
          <path
             id="path1104"
             style="fill:#272252;fill-opacity:1;fill-rule:nonzero;stroke:none"
             d="m 0,0 c 4.163,0.834 8.214,-1.863 9.048,-6.026 0.835,-4.163 -1.864,-8.214 -6.026,-9.049 -4.163,-0.834 -8.214,1.864 -9.048,6.026 C -6.861,-4.886 -4.163,-0.835 0,0" />
        </g>
      </g>
    </g>
  </g>
</svg>
