<?xml version="1.0" encoding="UTF-8" standalone="no"?>
<svg
   xmlns:dc="http://purl.org/dc/elements/1.1/"
   xmlns:cc="http://creativecommons.org/ns#"
   xmlns:rdf="http://www.w3.org/1999/02/22-rdf-syntax-ns#"
   xmlns:svg="http://www.w3.org/2000/svg"
   xmlns="http://www.w3.org/2000/svg"
   id="svg3309"
   version="1.1"
   viewBox="0 0 57.566242 16.994223"
   height="16.994223mm"
   width="57.566242mm">
  <defs
     id="defs3303">
    <clipPath
       id="clipPath1112"
       clipPathUnits="userSpaceOnUse">
      <path
         id="path1110"
         d="m 223.539,503.773 h 167.675 v 52.698 H 223.539 Z" />
    </clipPath>
    <clipPath
       id="clipPath1312"
       clipPathUnits="userSpaceOnUse">
      <path
         id="path1310"
         d="m 225.479,505.424 h 163.18 v 48.173 h -163.18 z" />
    </clipPath>
    <clipPath
       id="clipPath1328"
       clipPathUnits="userSpaceOnUse">
      <path
         id="path1326"
         d="m 223.539,503.773 h 167.675 v 52.698 H 223.539 Z" />
    </clipPath>
    <clipPath
       id="clipPath1340"
       clipPathUnits="userSpaceOnUse">
      <path
         id="path1338"
         d="m 225.479,505.424 h 163.18 v 48.173 h -163.18 z" />
    </clipPath>
    <clipPath
       id="clipPath1356"
       clipPathUnits="userSpaceOnUse">
      <path
         id="path1354"
         d="m 223.539,503.773 h 167.675 v 52.698 H 223.539 Z" />
    </clipPath>
  </defs>
  <metadata
     id="metadata3306">
    <rdf:RDF>
      <cc:Work
         rdf:about="">
        <dc:format>image/svg+xml</dc:format>
        <dc:type
           rdf:resource="http://purl.org/dc/dcmitype/StillImage" />
        <dc:title></dc:title>
      </cc:Work>
    </rdf:RDF>
  </metadata>
  <g
     transform="translate(-83.853788,-137.31242)"
     id="layer1">
    <g
       id="g3102"
       transform="matrix(0.35277777,0,0,-0.35277777,4.309809,332.60899)">
      <g
         id="g1106">
        <g
           id="g1108"
           clip-path="url(#clipPath1112)">
          <g
             id="g1114"
             transform="translate(291.8091,536.0242)">
            <path
               d="M 0,0 C 0,-0.843 -0.103,-1.555 -0.31,-2.136 -0.517,-2.717 -0.803,-3.188 -1.167,-3.55 -1.532,-3.911 -1.963,-4.174 -2.46,-4.336 -2.957,-4.497 -3.5,-4.579 -4.085,-4.579 c -0.553,0 -1.04,0.054 -1.461,0.161 -0.421,0.107 -0.788,0.26 -1.1,0.457 -0.312,0.198 -0.574,0.435 -0.786,0.711 -0.211,0.276 -0.382,0.582 -0.51,0.918 -0.129,0.336 -0.221,0.696 -0.275,1.082 -0.055,0.386 -0.083,0.788 -0.083,1.207 V 3.5 c 0,0.133 0.001,0.264 0.004,0.393 0.003,0.128 0.006,0.251 0.011,0.368 0.004,0.117 0.011,0.222 0.018,0.318 0.007,0.095 0.015,0.174 0.025,0.235 l -1.1,-0.043 V 5.9 h 4.207 V 4.936 C -5.302,4.926 -5.449,4.91 -5.578,4.886 -5.707,4.862 -5.815,4.81 -5.903,4.729 -5.991,4.647 -6.059,4.524 -6.107,4.357 -6.154,4.19 -6.178,3.96 -6.178,3.664 v -4.021 c 0,-0.639 0.07,-1.158 0.211,-1.561 0.14,-0.402 0.325,-0.718 0.553,-0.946 0.229,-0.229 0.49,-0.386 0.782,-0.472 0.293,-0.085 0.592,-0.128 0.897,-0.128 0.381,0 0.722,0.064 1.025,0.193 0.302,0.128 0.558,0.322 0.768,0.582 0.209,0.259 0.368,0.585 0.478,0.978 0.11,0.393 0.165,0.851 0.165,1.375 V 3.5 c 0,0.133 0,0.264 0.003,0.393 0.003,0.128 0.006,0.251 0.011,0.368 0.004,0.117 0.01,0.222 0.017,0.318 0.008,0.095 0.016,0.174 0.025,0.235 L -2.342,4.771 V 5.9 H 1.043 V 4.936 C 0.876,4.926 0.729,4.91 0.601,4.886 0.472,4.862 0.364,4.81 0.275,4.729 0.187,4.647 0.119,4.524 0.072,4.357 0.025,4.19 0,3.96 0,3.664 Z"
               style="fill:#272252;fill-opacity:1;fill-rule:nonzero;stroke:none"
               id="path1116" />
          </g>
          <g
             id="g1118"
             transform="translate(297.8024,536.717)">
            <path
               d="m 0,0 c 0.405,0 0.75,0.044 1.036,0.132 0.286,0.089 0.519,0.224 0.7,0.407 0.181,0.183 0.314,0.414 0.399,0.69 0.086,0.276 0.13,0.6 0.13,0.971 0,0.314 -0.036,0.582 -0.108,0.804 C 2.086,3.225 1.993,3.41 1.878,3.557 1.764,3.705 1.635,3.821 1.49,3.907 1.343,3.993 1.197,4.058 1.05,4.104 0.903,4.149 0.761,4.178 0.625,4.189 0.489,4.201 0.371,4.207 0.271,4.207 0.114,4.207 -0.025,4.195 -0.147,4.171 -0.268,4.147 -0.37,4.096 -0.454,4.014 -0.536,3.933 -0.601,3.817 -0.646,3.664 -0.692,3.512 -0.714,3.307 -0.714,3.05 v -3 C -0.6,0.036 -0.483,0.024 -0.365,0.014 -0.245,0.004 -0.124,0 0,0 M 3.593,-2.7 C 3.754,-2.943 3.9,-3.15 4.029,-3.321 4.157,-3.493 4.282,-3.633 4.403,-3.743 4.525,-3.853 4.65,-3.933 4.782,-3.986 4.913,-4.038 5.062,-4.067 5.229,-4.071 V -5.035 H 2.821 C 2.65,-4.912 2.476,-4.731 2.3,-4.493 2.124,-4.254 1.939,-3.976 1.743,-3.657 l -1.072,1.75 c -0.124,0.2 -0.235,0.367 -0.335,0.5 -0.101,0.133 -0.193,0.253 -0.279,0.357 -0.081,-0.005 -0.153,-0.007 -0.214,-0.007 h -0.186 -0.175 c -0.06,0 -0.125,0.002 -0.196,0.007 v -1.578 c 0,-0.267 -0.005,-0.523 -0.014,-0.768 -0.01,-0.246 -0.025,-0.43 -0.044,-0.554 l 1.243,0.043 v -1.128 h -4.343 v 0.964 c 0.162,0.009 0.309,0.025 0.44,0.046 0.131,0.022 0.24,0.074 0.329,0.157 0.088,0.083 0.156,0.208 0.203,0.375 0.047,0.167 0.072,0.398 0.072,0.693 v 5.607 c 0,0.133 0,0.264 0.003,0.393 0.002,0.128 0.006,0.251 0.011,0.368 0.004,0.117 0.01,0.222 0.018,0.318 0.007,0.095 0.015,0.174 0.025,0.235 L -3.872,4.079 V 5.207 L 0.293,5.236 C 0.926,5.236 1.499,5.183 2.011,5.079 2.522,4.974 2.962,4.801 3.329,4.561 3.695,4.321 3.976,4.007 4.171,3.621 4.367,3.236 4.464,2.762 4.464,2.2 4.469,1.876 4.418,1.564 4.314,1.261 4.21,0.958 4.051,0.681 3.839,0.429 3.628,0.176 3.361,-0.05 3.039,-0.25 2.718,-0.45 2.338,-0.611 1.9,-0.736 V -0.75 c 0.181,-0.071 0.361,-0.193 0.543,-0.364 0.181,-0.172 0.336,-0.355 0.464,-0.55 z"
               style="fill:#272252;fill-opacity:1;fill-rule:nonzero;stroke:none"
               id="path1120" />
          </g>
          <g
             id="g1122"
             transform="translate(307.881,537.4456)">
            <path
               d="M 0,0 C 0.309,0.005 0.568,0.06 0.778,0.164 0.988,0.269 1.157,0.411 1.286,0.589 1.414,0.768 1.506,0.974 1.56,1.207 1.615,1.44 1.642,1.693 1.642,1.964 1.642,2.26 1.596,2.504 1.503,2.7 1.41,2.896 1.292,3.05 1.146,3.164 1.001,3.279 0.836,3.36 0.65,3.407 0.464,3.454 0.279,3.479 0.093,3.479 -0.026,3.474 -0.138,3.46 -0.243,3.436 -0.348,3.412 -0.439,3.358 -0.515,3.275 -0.59,3.192 -0.651,3.07 -0.696,2.911 -0.742,2.751 -0.764,2.531 -0.764,2.25 v -2.271 z m -0.822,-4.729 c 0.257,0 0.503,0.002 0.736,0.004 0.234,0.003 0.464,0.008 0.693,0.018 0.296,0.014 0.55,0.07 0.764,0.168 0.215,0.097 0.391,0.229 0.529,0.396 0.138,0.167 0.24,0.363 0.307,0.589 0.067,0.226 0.1,0.476 0.1,0.747 0,0.333 -0.054,0.613 -0.16,0.839 -0.108,0.226 -0.251,0.408 -0.429,0.547 -0.179,0.138 -0.381,0.235 -0.607,0.292 -0.227,0.057 -0.457,0.086 -0.689,0.086 -0.462,0 -0.858,-0.004 -1.186,-0.014 v -2.379 c 0,-0.133 -0.001,-0.263 -0.004,-0.389 -0.002,-0.126 -0.006,-0.247 -0.01,-0.361 -0.005,-0.114 -0.011,-0.218 -0.019,-0.31 -0.007,-0.093 -0.015,-0.171 -0.025,-0.233 M -3.921,-4.8 c 0.161,0.01 0.308,0.025 0.439,0.047 0.131,0.021 0.24,0.073 0.328,0.157 0.089,0.083 0.156,0.208 0.204,0.375 0.047,0.166 0.071,0.397 0.071,0.692 v 5.608 c 0,0.133 10e-4,0.264 0.004,0.392 0.003,0.129 0.007,0.251 0.01,0.368 0.005,0.117 0.012,0.222 0.018,0.318 0.008,0.096 0.016,0.174 0.025,0.236 L -3.921,3.35 V 4.478 L 0.136,4.507 C 0.702,4.507 1.215,4.456 1.675,4.354 2.135,4.251 2.527,4.096 2.853,3.889 3.179,3.682 3.431,3.421 3.607,3.107 3.783,2.793 3.871,2.422 3.871,1.993 3.871,1.745 3.831,1.517 3.75,1.307 3.668,1.097 3.544,0.895 3.375,0.7 3.206,0.505 2.989,0.328 2.725,0.168 2.461,0.008 2.145,-0.121 1.778,-0.222 v -0.014 c 0.486,-0.076 0.907,-0.199 1.261,-0.368 0.355,-0.168 0.65,-0.368 0.882,-0.599 0.233,-0.232 0.408,-0.489 0.522,-0.772 0.114,-0.283 0.171,-0.578 0.171,-0.882 0,-0.476 -0.089,-0.896 -0.268,-1.257 C 4.168,-4.476 3.921,-4.779 3.603,-5.025 3.287,-5.271 2.912,-5.455 2.478,-5.578 2.046,-5.703 1.572,-5.764 1.057,-5.764 h -4.978 z"
               style="fill:#272252;fill-opacity:1;fill-rule:nonzero;stroke:none"
               id="path1124" />
          </g>
          <g
             id="g1126"
             transform="translate(315.9022,535.7742)">
            <path
               d="M 0,0 H 2.436 L 1.772,1.836 C 1.643,2.193 1.529,2.546 1.429,2.896 1.328,3.247 1.255,3.557 1.207,3.829 H 1.193 C 1.155,3.662 1.096,3.414 1.014,3.086 0.933,2.757 0.814,2.362 0.657,1.9 Z m 2.807,-1.029 -3.178,-0.057 -0.236,-0.688 c -0.024,-0.067 -0.053,-0.151 -0.089,-0.251 -0.036,-0.1 -0.076,-0.207 -0.122,-0.319 -0.045,-0.112 -0.09,-0.222 -0.135,-0.33 -0.046,-0.107 -0.086,-0.204 -0.118,-0.29 l 1.043,0.043 v -1.172 h -3.136 v 1.007 c 0.204,0 0.378,0.047 0.518,0.14 0.14,0.093 0.263,0.215 0.368,0.368 0.104,0.152 0.197,0.329 0.278,0.532 0.082,0.202 0.162,0.413 0.243,0.632 L 1.1,6.407 H 2.114 L 5.236,-1.564 C 5.264,-1.636 5.299,-1.731 5.34,-1.85 5.38,-1.969 5.422,-2.096 5.464,-2.232 5.507,-2.368 5.545,-2.504 5.579,-2.639 5.612,-2.775 5.636,-2.897 5.65,-3.007 l 0.843,0.043 V -4.093 H 2.55 v 0.965 c 0.262,0 0.446,0.051 0.55,0.154 0.105,0.103 0.157,0.242 0.157,0.419 0,0.1 -0.014,0.211 -0.042,0.334 C 3.186,-2.1 3.147,-1.969 3.1,-1.831 Z"
               style="fill:#272252;fill-opacity:1;fill-rule:nonzero;stroke:none"
               id="path1128" />
          </g>
          <g
             id="g1130"
             transform="translate(332.2021,531.5383)">
            <path
               d="M 0,0 H -1.243 L -5.921,5.979 C -6.169,6.297 -6.436,6.662 -6.722,7.072 H -6.736 L -6.714,2.543 C -6.714,2.41 -6.715,2.279 -6.718,2.15 -6.72,2.022 -6.724,1.899 -6.728,1.782 -6.733,1.665 -6.739,1.56 -6.747,1.464 -6.753,1.369 -6.762,1.29 -6.772,1.229 l 1.101,0.043 V 0.143 h -3.336 v 0.964 c 0.162,0.01 0.308,0.025 0.439,0.047 0.132,0.021 0.241,0.074 0.328,0.157 0.089,0.083 0.157,0.208 0.204,0.375 0.048,0.167 0.072,0.397 0.072,0.693 L -8,7.986 c 0,0.133 0.001,0.264 0.004,0.393 0.002,0.128 0.006,0.25 0.01,0.368 0.005,0.116 0.011,0.222 0.018,0.317 0.007,0.096 0.015,0.175 0.025,0.236 l -1.1,-0.043 v 1.129 h 2.293 l 4.472,-5.643 c 0.247,-0.314 0.45,-0.585 0.61,-0.811 0.16,-0.226 0.296,-0.422 0.41,-0.589 h 0.015 v 4.643 c 0,0.133 0.001,0.264 0.004,0.393 0.002,0.128 0.006,0.25 0.01,0.368 0.005,0.116 0.011,0.222 0.018,0.317 0.007,0.096 0.016,0.175 0.026,0.236 L -2.286,9.257 v 1.129 H 1.043 V 9.421 C 0.876,9.412 0.728,9.396 0.6,9.372 0.471,9.348 0.363,9.296 0.275,9.214 0.186,9.133 0.119,9.01 0.071,8.843 0.024,8.676 0,8.446 0,8.15 Z"
               style="fill:#272252;fill-opacity:1;fill-rule:nonzero;stroke:none"
               id="path1132" />
          </g>
          <g
             id="g1134"
             transform="translate(341.4953,536.1241)">
            <path
               d="M 0,0 V -2.043 C 0,-2.176 -0.001,-2.307 -0.004,-2.436 -0.007,-2.564 -0.01,-2.687 -0.014,-2.803 -0.019,-2.92 -0.025,-3.026 -0.033,-3.121 -0.039,-3.217 -0.048,-3.296 -0.058,-3.357 l 1.3,0.043 v -1.129 h -4.4 v 0.965 c 0.162,0.009 0.309,0.026 0.44,0.05 0.131,0.024 0.24,0.075 0.328,0.157 0.089,0.081 0.156,0.204 0.204,0.371 0.047,0.167 0.072,0.397 0.072,0.693 V 3.4 c 0,0.133 0,0.264 0.003,0.393 0.002,0.128 0.006,0.251 0.011,0.368 0.004,0.117 0.01,0.222 0.018,0.318 0.007,0.095 0.015,0.174 0.025,0.235 L -3.158,4.672 V 5.8 H 4.164 L 4.25,2.964 H 3.285 C 3.285,3.36 3.229,3.681 3.118,3.929 3.006,4.176 2.864,4.369 2.693,4.507 2.521,4.646 2.331,4.738 2.121,4.786 1.911,4.833 1.707,4.855 1.507,4.85 L 0.978,4.836 C 0.825,4.831 0.689,4.815 0.567,4.789 0.446,4.763 0.344,4.707 0.26,4.622 0.178,4.536 0.113,4.41 0.068,4.243 0.022,4.076 0,3.85 0,3.564 V 1.015 H 1.514 L 1.45,2.279 H 2.578 V -1.278 H 1.614 c 0,0.304 -0.038,0.545 -0.115,0.721 C 1.424,-0.381 1.321,-0.25 1.193,-0.164 1.064,-0.078 0.913,-0.028 0.739,-0.011 0.565,0.006 0.378,0.012 0.178,0.007 Z"
               style="fill:#272252;fill-opacity:1;fill-rule:nonzero;stroke:none"
               id="path1136" />
          </g>
          <g
             id="g1138"
             transform="translate(346.688,531.6815)">
            <path
               d="m 0,0 v 0.957 c 0.161,0.01 0.307,0.025 0.439,0.046 0.131,0.022 0.24,0.075 0.329,0.157 0.088,0.084 0.156,0.21 0.203,0.376 0.047,0.167 0.071,0.398 0.071,0.693 v 5.613 c 0,0.133 10e-4,0.264 0.004,0.393 0.003,0.128 0.006,0.251 0.011,0.368 0.004,0.116 0.01,0.223 0.018,0.318 C 1.082,9.017 1.09,9.095 1.1,9.157 L 0,9.114 v 1.129 H 4.199 V 9.278 C 4.033,9.269 3.885,9.252 3.757,9.228 3.628,9.204 3.52,9.152 3.432,9.071 3.344,8.99 3.276,8.866 3.228,8.7 3.181,8.533 3.157,8.302 3.157,8.006 V 2.394 C 3.157,2.26 3.156,2.131 3.154,2.004 3.15,1.879 3.147,1.758 3.143,1.644 3.138,1.529 3.132,1.425 3.125,1.332 3.118,1.239 3.11,1.162 3.1,1.1 l 1.964,0.007 c 0.576,0 1.029,0.199 1.357,0.598 0.329,0.399 0.493,0.999 0.493,1.802 H 7.885 L 7.8,0 Z"
               style="fill:#272252;fill-opacity:1;fill-rule:nonzero;stroke:none"
               id="path1140" />
          </g>
          <g
             id="g1142"
             transform="translate(357.6163,536.9741)">
            <path
               d="m 0,0 c 0,-0.31 0.022,-0.633 0.064,-0.971 0.043,-0.339 0.112,-0.673 0.207,-1.004 0.096,-0.331 0.219,-0.646 0.372,-0.946 0.152,-0.3 0.337,-0.564 0.554,-0.789 0.217,-0.226 0.47,-0.408 0.76,-0.543 0.291,-0.136 0.619,-0.204 0.986,-0.204 0.338,0 0.638,0.058 0.9,0.175 0.261,0.117 0.491,0.275 0.689,0.475 0.197,0.2 0.365,0.433 0.503,0.7 0.139,0.267 0.251,0.549 0.336,0.846 0.086,0.298 0.148,0.605 0.186,0.922 0.038,0.317 0.057,0.622 0.057,0.918 0,0.657 -0.057,1.263 -0.171,1.817 C 5.328,1.951 5.153,2.43 4.914,2.832 4.675,3.235 4.376,3.549 4.015,3.775 3.653,4.001 3.224,4.114 2.729,4.114 2.381,4.114 2.073,4.056 1.804,3.939 1.535,3.823 1.299,3.662 1.096,3.457 0.894,3.253 0.725,3.015 0.586,2.746 0.447,2.478 0.335,2.19 0.247,1.886 0.158,1.581 0.096,1.268 0.057,0.947 0.018,0.625 0,0.31 0,0 m -2.3,-0.171 c 0,0.409 0.047,0.826 0.14,1.25 0.092,0.424 0.232,0.833 0.421,1.228 0.188,0.396 0.424,0.768 0.707,1.118 0.283,0.35 0.615,0.656 0.996,0.918 0.382,0.262 0.811,0.468 1.29,0.618 0.478,0.15 1.006,0.225 1.582,0.225 0.59,0 1.127,-0.076 1.611,-0.229 C 4.93,4.805 5.36,4.598 5.736,4.336 6.111,4.074 6.436,3.768 6.711,3.418 6.985,3.068 7.211,2.696 7.392,2.3 7.574,1.905 7.707,1.496 7.793,1.072 7.878,0.647 7.922,0.233 7.922,-0.171 7.922,-0.576 7.875,-0.989 7.782,-1.411 7.689,-1.832 7.549,-2.24 7.361,-2.636 7.172,-3.031 6.937,-3.404 6.654,-3.757 6.37,-4.11 6.038,-4.417 5.657,-4.679 5.276,-4.94 4.847,-5.147 4.371,-5.3 3.895,-5.452 3.369,-5.529 2.793,-5.529 c -0.619,0 -1.174,0.075 -1.665,0.222 -0.489,0.147 -0.924,0.349 -1.303,0.603 -0.378,0.255 -0.703,0.555 -0.972,0.901 -0.269,0.345 -0.488,0.717 -0.657,1.114 -0.168,0.397 -0.293,0.811 -0.375,1.239 -0.081,0.429 -0.121,0.855 -0.121,1.279"
               style="fill:#272252;fill-opacity:1;fill-rule:nonzero;stroke:none"
               id="path1144" />
          </g>
          <g
             id="g1146"
             transform="translate(374.2592,541.9241)">
            <path
               d="M 0,0 1.657,-5.393 C 1.761,-5.736 1.856,-6.079 1.939,-6.425 2.022,-6.77 2.104,-7.129 2.185,-7.5 H 2.2 c 0.086,0.329 0.175,0.658 0.271,0.989 0.096,0.332 0.19,0.675 0.286,1.032 l 0.814,3.065 c 0.067,0.233 0.148,0.472 0.243,0.718 0.096,0.245 0.214,0.449 0.357,0.61 v 0.015 L 3.05,-1.128 V 0 H 6.343 V -0.964 C 6.181,-0.974 6.025,-1.007 5.879,-1.064 5.731,-1.122 5.592,-1.21 5.46,-1.332 5.329,-1.453 5.208,-1.612 5.096,-1.807 4.984,-2.003 4.883,-2.243 4.793,-2.529 L 2.4,-10.328 H 1.107 l -1.736,5.235 c -0.128,0.386 -0.232,0.758 -0.311,1.118 -0.078,0.36 -0.15,0.706 -0.217,1.039 h -0.015 c -0.052,-0.333 -0.113,-0.652 -0.182,-0.957 -0.069,-0.304 -0.153,-0.621 -0.253,-0.95 l -1.665,-5.485 H -4.543 L -7.15,-2.45 c -0.053,0.119 -0.104,0.243 -0.154,0.372 -0.05,0.128 -0.094,0.253 -0.132,0.375 -0.038,0.121 -0.069,0.234 -0.093,0.339 -0.024,0.104 -0.035,0.197 -0.035,0.278 L -8.343,-1.128 V 0 h 4.307 v -0.964 h -0.085 c -0.268,0 -0.476,-0.047 -0.625,-0.14 -0.15,-0.092 -0.226,-0.258 -0.226,-0.496 -0.004,-0.067 0,-0.138 0.015,-0.214 0.014,-0.076 0.033,-0.16 0.057,-0.25 l 0.878,-3.343 c 0.043,-0.167 0.085,-0.324 0.125,-0.471 0.04,-0.148 0.082,-0.301 0.122,-0.461 0.04,-0.16 0.081,-0.331 0.121,-0.515 0.041,-0.182 0.083,-0.391 0.125,-0.625 h 0.014 c 0.025,0.086 0.058,0.211 0.1,0.376 0.044,0.164 0.092,0.345 0.147,0.542 0.054,0.198 0.112,0.404 0.171,0.618 0.06,0.214 0.117,0.418 0.171,0.611 0.055,0.193 0.105,0.364 0.147,0.514 0.043,0.15 0.076,0.261 0.1,0.333 L -1.322,0 Z"
               style="fill:#272252;fill-opacity:1;fill-rule:nonzero;stroke:none"
               id="path1148" />
          </g>
          <g
             id="g1150"
             transform="translate(384.9449,532.5027)">
            <path
               d="m 0,0 c 0.262,0 0.5,0.036 0.717,0.107 0.217,0.072 0.404,0.171 0.558,0.297 0.154,0.125 0.274,0.272 0.36,0.439 0.086,0.167 0.129,0.345 0.129,0.536 0,0.257 -0.07,0.478 -0.211,0.664 C 1.413,2.229 1.229,2.392 1.003,2.532 0.778,2.672 0.525,2.799 0.246,2.911 -0.033,3.022 -0.31,3.133 -0.586,3.243 -1.058,3.433 -1.496,3.638 -1.9,3.857 -2.305,4.076 -2.655,4.329 -2.95,4.614 -3.246,4.9 -3.476,5.226 -3.643,5.593 c -0.167,0.367 -0.25,0.79 -0.25,1.271 0,0.201 0.025,0.408 0.075,0.625 0.05,0.217 0.129,0.429 0.236,0.636 0.106,0.207 0.249,0.404 0.424,0.59 0.176,0.185 0.392,0.348 0.647,0.489 0.254,0.14 0.55,0.251 0.886,0.332 0.335,0.081 0.72,0.121 1.153,0.121 0.19,0 0.396,-0.015 0.614,-0.046 C 0.361,9.58 0.581,9.536 0.8,9.479 1.018,9.421 1.229,9.349 1.432,9.261 1.635,9.172 1.817,9.071 1.978,8.957 h 0.015 l -0.05,0.6 H 3.071 V 6.136 H 2.114 C 1.981,6.969 1.696,7.589 1.261,7.993 0.825,8.397 0.264,8.6 -0.422,8.6 -0.631,8.6 -0.829,8.569 -1.018,8.507 -1.206,8.446 -1.373,8.358 -1.518,8.246 -1.663,8.135 -1.779,8.001 -1.865,7.847 -1.95,7.692 -1.993,7.524 -1.993,7.343 -1.993,7.114 -1.946,6.91 -1.85,6.729 -1.755,6.547 -1.61,6.379 -1.415,6.222 -1.219,6.064 -0.974,5.912 -0.679,5.764 -0.384,5.617 -0.033,5.462 0.371,5.3 0.614,5.2 0.867,5.09 1.128,4.971 1.39,4.853 1.645,4.721 1.892,4.575 2.14,4.429 2.375,4.268 2.596,4.089 2.818,3.911 3.01,3.712 3.175,3.493 3.339,3.274 3.47,3.032 3.567,2.768 3.665,2.504 3.714,2.212 3.714,1.893 3.714,1.46 3.624,1.062 3.446,0.7 3.268,0.338 3.014,0.028 2.686,-0.232 2.357,-0.492 1.961,-0.694 1.499,-0.839 1.038,-0.984 0.524,-1.057 -0.043,-1.057 c -0.19,0 -0.393,0.016 -0.607,0.046 -0.215,0.032 -0.432,0.077 -0.65,0.136 -0.219,0.06 -0.437,0.135 -0.654,0.225 -0.217,0.09 -0.422,0.196 -0.617,0.314 h -0.015 l 0.05,-0.621 h -1.128 v 3.421 h 0.957 C -2.64,2.055 -2.526,1.696 -2.364,1.389 -2.203,1.082 -2.004,0.825 -1.768,0.618 -1.532,0.411 -1.265,0.256 -0.964,0.154 -0.665,0.051 -0.343,0 0,0"
               style="fill:#272252;fill-opacity:1;fill-rule:nonzero;stroke:none"
               id="path1152" />
          </g>
          <g
             id="g1154"
             transform="translate(283.932,522.6833)">
            <path
               d="m 0,0 c 0,-0.317 0.03,-0.646 0.087,-0.985 0.058,-0.34 0.148,-0.673 0.265,-0.998 0.12,-0.325 0.27,-0.635 0.451,-0.929 0.182,-0.294 0.396,-0.55 0.644,-0.769 0.248,-0.219 0.527,-0.393 0.838,-0.523 0.309,-0.128 0.657,-0.193 1.04,-0.193 0.35,0 0.67,0.053 0.962,0.159 0.292,0.107 0.555,0.252 0.788,0.438 0.233,0.186 0.438,0.404 0.612,0.657 0.175,0.252 0.321,0.523 0.438,0.812 0.117,0.291 0.205,0.601 0.265,0.93 0.061,0.329 0.091,0.637 0.091,0.926 0,0.308 -0.033,0.65 -0.1,1.025 C 6.314,0.926 6.217,1.277 6.087,1.604 5.958,1.931 5.8,2.238 5.612,2.524 5.425,2.809 5.208,3.057 4.963,3.268 4.717,3.478 4.443,3.644 4.14,3.765 3.838,3.886 3.511,3.946 3.156,3.946 2.631,3.946 2.171,3.829 1.775,3.596 1.38,3.362 1.05,3.058 0.787,2.683 0.525,2.308 0.328,1.886 0.197,1.417 0.065,0.947 0,0.475 0,0 m -1.256,-0.235 c 0,0.359 0.039,0.723 0.119,1.094 0.079,0.371 0.199,0.73 0.362,1.078 0.162,0.348 0.367,0.674 0.612,0.978 C 0.083,3.22 0.37,3.486 0.7,3.715 1.029,3.944 1.402,4.125 1.819,4.256 2.236,4.387 2.695,4.453 3.2,4.453 3.72,4.453 4.195,4.387 4.622,4.252 5.049,4.12 5.431,3.939 5.769,3.712 6.106,3.485 6.399,3.219 6.647,2.912 6.895,2.606 7.101,2.278 7.265,1.931 7.43,1.583 7.553,1.224 7.635,0.853 7.715,0.482 7.756,0.119 7.756,-0.235 7.756,-0.588 7.715,-0.95 7.635,-1.319 7.553,-1.687 7.432,-2.047 7.273,-2.394 7.111,-2.742 6.908,-3.069 6.662,-3.375 6.417,-3.681 6.128,-3.949 5.797,-4.179 5.465,-4.407 5.093,-4.589 4.678,-4.722 4.263,-4.856 3.804,-4.922 3.3,-4.922 c -0.542,0 -1.03,0.065 -1.465,0.193 -0.436,0.13 -0.823,0.306 -1.16,0.529 -0.338,0.222 -0.628,0.485 -0.872,0.787 -0.243,0.302 -0.443,0.626 -0.6,0.972 -0.156,0.346 -0.272,0.707 -0.347,1.085 -0.075,0.376 -0.112,0.751 -0.112,1.121"
               style="fill:#272252;fill-opacity:1;fill-rule:nonzero;stroke:none"
               id="path1156" />
          </g>
          <g
             id="g1158"
             transform="translate(297.3362,526.4921)">
            <path
               d="m 0,0 c -0.208,0 -0.375,-0.021 -0.5,-0.062 -0.125,-0.041 -0.221,-0.112 -0.291,-0.209 -0.068,-0.098 -0.113,-0.226 -0.134,-0.385 -0.02,-0.158 -0.031,-0.354 -0.031,-0.588 v -2.381 l 0.931,0.025 c 0.367,0.009 0.674,0.069 0.921,0.181 0.249,0.113 0.447,0.26 0.598,0.441 0.15,0.182 0.256,0.381 0.319,0.597 0.062,0.217 0.093,0.456 0.093,0.718 0,0.325 -0.062,0.605 -0.187,0.838 -0.125,0.234 -0.28,0.407 -0.463,0.522 C 1.073,-0.188 0.871,-0.109 0.65,-0.065 0.429,-0.021 0.212,0 0,0 m -1,-8.012 c 0.1,-0.008 0.219,-0.015 0.356,-0.019 0.138,-0.004 0.274,-0.006 0.41,-0.006 h 0.365 0.226 c 0.329,0 0.629,0.041 0.899,0.125 0.271,0.084 0.503,0.206 0.698,0.368 0.193,0.163 0.343,0.365 0.45,0.607 0.105,0.242 0.158,0.523 0.158,0.843 0,0.392 -0.06,0.717 -0.181,0.975 -0.12,0.259 -0.282,0.465 -0.484,0.619 -0.202,0.154 -0.436,0.263 -0.703,0.325 -0.267,0.062 -0.546,0.094 -0.837,0.094 -0.255,0 -0.486,-0.003 -0.695,-0.009 -0.208,-0.006 -0.413,-0.016 -0.618,-0.029 v -2.893 c 0,-0.233 -0.003,-0.432 -0.01,-0.594 C -0.971,-7.769 -0.983,-7.903 -1,-8.012 m -1.074,6.924 c 0,0.234 0.003,0.435 0.008,0.6 0.007,0.168 0.018,0.305 0.035,0.413 l -0.925,-0.056 v 0.569 c 0.47,0.009 0.942,0.015 1.413,0.018 0.47,0.005 0.963,0.007 1.481,0.007 0.495,0 0.939,-0.044 1.331,-0.132 0.392,-0.087 0.722,-0.22 0.99,-0.4 0.27,-0.178 0.472,-0.4 0.61,-0.662 0.137,-0.263 0.206,-0.596 0.206,-1 C 3.07,-1.939 3.025,-2.147 2.938,-2.356 2.85,-2.564 2.719,-2.758 2.544,-2.937 2.369,-3.116 2.149,-3.275 1.884,-3.412 1.619,-3.55 1.313,-3.65 0.962,-3.712 v -0.025 c 0.471,0 0.884,-0.058 1.238,-0.172 C 2.554,-4.024 2.85,-4.182 3.087,-4.384 3.325,-4.587 3.504,-4.827 3.622,-5.106 3.741,-5.385 3.8,-5.689 3.8,-6.019 3.8,-6.41 3.724,-6.761 3.571,-7.071 3.42,-7.382 3.209,-7.645 2.941,-7.859 2.672,-8.074 2.354,-8.238 1.984,-8.352 1.616,-8.468 1.214,-8.525 0.781,-8.525 H -2.956 V -8.1 c 0.242,0.005 0.423,0.047 0.543,0.129 0.121,0.081 0.207,0.194 0.257,0.337 0.05,0.144 0.076,0.314 0.078,0.513 0.002,0.197 0.004,0.418 0.004,0.659 z"
               style="fill:#272252;fill-opacity:1;fill-rule:nonzero;stroke:none"
               id="path1160" />
          </g>
          <g
             id="g1162"
             transform="translate(304.6539,517.8672)">
            <path
               d="m 0,0 h -0.662 l -0.075,2.725 h 0.494 C -0.218,2.346 -0.137,2.013 0,1.728 0.138,1.443 0.318,1.204 0.54,1.013 0.764,0.821 1.023,0.676 1.319,0.578 1.615,0.481 1.932,0.431 2.269,0.431 c 0.25,0 0.487,0.035 0.709,0.104 0.224,0.068 0.42,0.17 0.587,0.306 0.17,0.135 0.303,0.303 0.4,0.503 0.099,0.2 0.148,0.429 0.148,0.687 0,0.313 -0.069,0.582 -0.207,0.806 C 3.769,3.062 3.586,3.262 3.36,3.435 3.133,3.607 2.874,3.763 2.585,3.903 2.295,4.043 2,4.182 1.7,4.322 1.4,4.461 1.105,4.61 0.816,4.766 0.526,4.922 0.268,5.104 0.041,5.31 c -0.227,0.206 -0.409,0.446 -0.547,0.721 -0.138,0.275 -0.206,0.603 -0.206,0.981 0,0.147 0.017,0.303 0.05,0.469 0.033,0.167 0.088,0.334 0.165,0.5 0.077,0.167 0.179,0.329 0.307,0.485 0.127,0.156 0.286,0.294 0.478,0.412 0.192,0.119 0.418,0.214 0.681,0.284 0.262,0.072 0.567,0.107 0.913,0.107 0.166,0 0.343,-0.01 0.531,-0.032 C 2.6,9.217 2.79,9.181 2.985,9.131 3.178,9.081 3.371,9.013 3.563,8.928 3.755,8.843 3.938,8.736 4.113,8.606 l -0.05,0.55 h 0.65 V 6.35 H 4.251 C 4.23,6.659 4.17,6.959 4.073,7.249 3.975,7.539 3.832,7.796 3.644,8.02 3.457,8.244 3.225,8.423 2.95,8.559 2.675,8.695 2.35,8.763 1.975,8.763 1.708,8.763 1.473,8.722 1.269,8.641 1.065,8.559 0.894,8.45 0.757,8.311 0.619,8.174 0.515,8.014 0.444,7.833 0.374,7.651 0.338,7.461 0.338,7.26 0.338,6.968 0.407,6.714 0.547,6.499 0.687,6.284 0.871,6.094 1.1,5.927 1.33,5.76 1.59,5.607 1.882,5.47 2.173,5.331 2.47,5.193 2.775,5.053 3.08,4.913 3.377,4.763 3.669,4.604 3.961,4.443 4.221,4.257 4.45,4.047 4.679,3.836 4.864,3.592 5.003,3.312 5.143,3.034 5.212,2.705 5.212,2.325 5.212,1.971 5.145,1.645 5.012,1.347 4.88,1.049 4.686,0.793 4.431,0.578 4.177,0.363 3.864,0.197 3.49,0.075 3.118,-0.046 2.694,-0.106 2.219,-0.106 2.027,-0.106 1.831,-0.093 1.628,-0.065 1.426,-0.038 1.226,0.003 1.028,0.056 0.831,0.111 0.639,0.18 0.453,0.263 0.268,0.346 0.096,0.442 -0.062,0.55 Z"
               style="fill:#272252;fill-opacity:1;fill-rule:nonzero;stroke:none"
               id="path1164" />
          </g>
          <g
             id="g1166"
             transform="translate(314.6708,519.4422)">
            <path
               d="M 0,0 C 0,-0.237 -0.003,-0.437 -0.01,-0.596 -0.015,-0.757 -0.026,-0.891 -0.043,-1 l 2.449,0.037 c 0.28,0.005 0.532,0.039 0.757,0.104 0.225,0.064 0.418,0.172 0.577,0.325 0.161,0.152 0.285,0.353 0.373,0.606 C 4.2,0.324 4.244,0.64 4.244,1.019 H 4.681 L 4.607,-1.475 H -2 v 0.425 c 0.205,0.004 0.365,0.036 0.485,0.097 0.118,0.06 0.207,0.143 0.265,0.247 0.058,0.104 0.095,0.228 0.11,0.372 0.014,0.144 0.021,0.304 0.021,0.479 v 0.376 5.534 c 0,0.176 0.004,0.341 0.01,0.498 0.006,0.156 0.017,0.299 0.034,0.428 L -2,6.925 V 7.487 H 4.156 L 4.219,5.244 H 3.8 C 3.8,5.611 3.758,5.911 3.672,6.143 3.587,6.378 3.47,6.561 3.322,6.694 3.174,6.828 3,6.918 2.8,6.966 2.6,7.013 2.383,7.037 2.15,7.037 L 0.969,7.019 C 0.732,7.006 0.547,6.969 0.415,6.906 0.285,6.844 0.187,6.751 0.125,6.629 0.063,6.505 0.026,6.35 0.015,6.162 0.005,5.975 0,5.75 0,5.488 V 3.425 H 2.4 L 2.307,4.531 H 2.875 V 1.837 H 2.457 c 0,0.25 -0.022,0.449 -0.066,0.598 C 2.348,2.582 2.278,2.697 2.185,2.779 2.09,2.86 1.972,2.912 1.828,2.937 1.685,2.962 1.511,2.975 1.307,2.975 H 1.125 C 1.063,2.975 0.688,2.961 0,2.931 Z"
               style="fill:#272252;fill-opacity:1;fill-rule:nonzero;stroke:none"
               id="path1168" />
          </g>
          <g
             id="g1170"
             transform="translate(324.1692,522.4672)">
            <path
               d="m 0,0 c 0.133,-0.008 0.262,-0.015 0.385,-0.021 0.122,-0.007 0.259,-0.006 0.409,0.002 0.349,0.013 0.669,0.057 0.959,0.135 0.29,0.077 0.54,0.196 0.75,0.359 0.211,0.162 0.374,0.372 0.491,0.629 0.116,0.256 0.175,0.569 0.175,0.94 0,0.642 -0.184,1.125 -0.554,1.453 C 2.248,3.824 1.669,3.987 0.881,3.987 0.639,3.987 0.458,3.951 0.338,3.878 0.217,3.805 0.131,3.702 0.081,3.569 0.031,3.436 0.005,3.275 0.003,3.087 0.001,2.9 0,2.692 0,2.463 Z M 0.869,-0.5 C 0.726,-0.508 0.583,-0.512 0.437,-0.509 0.292,-0.507 0.146,-0.5 0,-0.488 V -2.979 C 0,-3.214 -0.003,-3.413 -0.01,-3.58 -0.015,-3.747 -0.027,-3.885 -0.044,-3.994 l 0.925,0.05 V -4.5 H -2 v 0.419 c 0.242,0.009 0.423,0.052 0.544,0.131 0.12,0.08 0.206,0.187 0.256,0.326 0.05,0.137 0.076,0.301 0.078,0.491 0.002,0.189 0.003,0.396 0.003,0.622 v 5.535 c 0,0.176 0.004,0.341 0.009,0.497 0.007,0.156 0.018,0.299 0.035,0.429 L -2,3.894 v 0.568 c 0.483,0.009 0.969,0.015 1.456,0.019 C -0.056,4.485 0.435,4.484 0.931,4.475 1.548,4.462 2.076,4.404 2.515,4.297 2.956,4.191 3.316,4.04 3.598,3.844 3.878,3.648 4.085,3.41 4.215,3.131 4.348,2.852 4.412,2.536 4.412,2.181 4.412,1.931 4.38,1.676 4.313,1.416 4.245,1.155 4.123,0.909 3.944,0.675 3.764,0.442 3.52,0.234 3.209,0.05 2.899,-0.133 2.5,-0.275 2.012,-0.375 2.179,-0.496 2.329,-0.65 2.463,-0.838 2.596,-1.026 2.742,-1.245 2.9,-1.496 l 0.875,-1.37 c 0.108,-0.171 0.213,-0.332 0.312,-0.479 0.101,-0.149 0.21,-0.277 0.328,-0.386 0.119,-0.108 0.253,-0.194 0.4,-0.257 0.148,-0.062 0.323,-0.093 0.522,-0.093 V -4.5 H 3.725 c -0.125,0.109 -0.238,0.217 -0.338,0.325 -0.1,0.109 -0.195,0.221 -0.284,0.338 -0.09,0.116 -0.176,0.236 -0.259,0.359 -0.083,0.123 -0.171,0.256 -0.263,0.397 l -0.856,1.369 c -0.058,0.091 -0.119,0.19 -0.182,0.297 -0.062,0.106 -0.129,0.213 -0.199,0.321 -0.071,0.109 -0.145,0.214 -0.225,0.316 -0.08,0.102 -0.163,0.195 -0.25,0.278"
               style="fill:#272252;fill-opacity:1;fill-rule:nonzero;stroke:none"
               id="path1172" />
          </g>
          <g
             id="g1174"
             transform="translate(330.9243,526.9297)">
            <path
               d="M 0,0 H 2.969 V -0.425 L 2.956,-0.438 C 2.744,-0.45 2.574,-0.49 2.447,-0.556 2.32,-0.622 2.232,-0.714 2.184,-0.831 2.137,-0.947 2.125,-1.089 2.15,-1.253 c 0.025,-0.165 0.081,-0.353 0.169,-0.566 0.1,-0.253 0.198,-0.501 0.294,-0.74 0.095,-0.24 0.193,-0.48 0.291,-0.722 0.097,-0.242 0.197,-0.488 0.3,-0.738 0.102,-0.25 0.211,-0.51 0.327,-0.781 0.105,-0.241 0.207,-0.478 0.31,-0.713 0.102,-0.233 0.198,-0.456 0.288,-0.668 0.089,-0.213 0.172,-0.413 0.249,-0.6 0.077,-0.188 0.141,-0.352 0.191,-0.494 h 0.024 c 1.139,3.209 1.803,5.087 1.994,5.637 0.192,0.55 0.338,0.925 0.438,1.125 L 6.044,-0.569 V 0 H 8.637 V -0.425 C 8.45,-0.433 8.286,-0.46 8.144,-0.506 8.002,-0.552 7.877,-0.624 7.769,-0.722 7.661,-0.82 7.563,-0.946 7.475,-1.103 7.388,-1.259 7.271,-1.539 7.129,-1.944 6.984,-2.347 6.806,-2.846 6.591,-3.438 6.376,-4.029 6.179,-4.574 5.997,-5.071 5.816,-5.57 5.604,-6.149 5.363,-6.809 5.121,-7.469 4.844,-8.229 4.531,-9.088 H 4.175 L 1.269,-2.281 C 1.174,-2.064 1.094,-1.87 1.031,-1.696 0.969,-1.524 0.917,-1.368 0.871,-1.228 0.829,-1.089 0.795,-0.963 0.772,-0.85 0.749,-0.738 0.731,-0.633 0.719,-0.538 L 0,-0.569 Z"
               style="fill:#272252;fill-opacity:1;fill-rule:nonzero;stroke:none"
               id="path1176" />
          </g>
          <g
             id="g1178"
             transform="translate(343.4917,523.8547)">
            <path
               d="M 0,0 C -0.196,-0.55 -0.368,-1.034 -0.517,-1.453 -0.664,-1.872 -0.796,-2.245 -0.913,-2.575 H 2.05 L 1.137,-0.125 0.562,1.45 H 0.537 Z m -1.551,-4.497 c -0.032,-0.101 -0.062,-0.19 -0.087,-0.27 -0.025,-0.08 -0.05,-0.153 -0.075,-0.22 -0.025,-0.066 -0.05,-0.131 -0.075,-0.194 -0.025,-0.062 -0.052,-0.129 -0.081,-0.2 l 1,0.05 v -0.557 h -2.394 v 0.419 c 0.192,0 0.349,0.038 0.469,0.116 0.12,0.077 0.223,0.187 0.306,0.329 0.083,0.141 0.159,0.31 0.229,0.506 0.068,0.195 0.146,0.413 0.234,0.651 L 0.612,3.319 H 0.919 L 3.775,-3.974 C 3.812,-4.062 3.851,-4.167 3.891,-4.289 3.93,-4.413 3.967,-4.538 4.003,-4.668 4.038,-4.797 4.066,-4.924 4.083,-5.05 4.103,-5.175 4.11,-5.285 4.106,-5.381 l 0.875,0.05 V -5.888 H 2.05 v 0.419 c 0.237,0.005 0.412,0.048 0.525,0.132 0.112,0.084 0.183,0.186 0.212,0.307 0.03,0.121 0.03,0.25 0,0.389 -0.029,0.137 -0.067,0.267 -0.113,0.388 L 2.225,-3.05 -1.107,-3.125 c -0.092,-0.263 -0.173,-0.504 -0.244,-0.724 -0.07,-0.219 -0.137,-0.435 -0.2,-0.648"
               style="fill:#272252;fill-opacity:1;fill-rule:nonzero;stroke:none"
               id="path1180" />
          </g>
          <g
             id="g1182"
             transform="translate(356.9521,524.2235)">
            <path
               d="m 0,0 c -0.008,0.379 -0.037,0.71 -0.088,0.991 -0.05,0.281 -0.137,0.514 -0.262,0.7 -0.125,0.185 -0.294,0.324 -0.506,0.415 -0.213,0.092 -0.483,0.138 -0.813,0.138 L -2.75,2.237 -2.769,-4.737 c 0,-0.458 -0.012,-0.796 -0.037,-1.013 l 1.062,0.05 V -6.256 H -4.75 v 0.418 c 0.237,0.009 0.417,0.055 0.538,0.138 0.12,0.084 0.205,0.196 0.256,0.335 0.05,0.139 0.075,0.303 0.075,0.491 v 0.607 L -3.862,2.225 -5.187,2.219 C -5.458,2.219 -5.686,2.174 -5.871,2.085 -6.057,1.994 -6.208,1.859 -6.325,1.675 -6.442,1.492 -6.526,1.261 -6.579,0.985 -6.631,0.707 -6.657,0.379 -6.657,0 h -0.474 l 0.075,2.706 H 0.406 L 0.481,0 Z"
               style="fill:#272252;fill-opacity:1;fill-rule:nonzero;stroke:none"
               id="path1184" />
          </g>
          <g
             id="g1186"
             transform="translate(361.1135,522.6833)">
            <path
               d="m 0,0 c 0,-0.317 0.03,-0.646 0.087,-0.985 0.059,-0.34 0.148,-0.673 0.266,-0.998 0.119,-0.325 0.269,-0.635 0.45,-0.929 0.182,-0.294 0.396,-0.55 0.645,-0.769 0.246,-0.219 0.526,-0.393 0.837,-0.523 0.31,-0.128 0.657,-0.193 1.04,-0.193 0.35,0 0.671,0.053 0.963,0.159 0.292,0.107 0.554,0.252 0.787,0.438 0.233,0.186 0.438,0.404 0.613,0.657 0.174,0.252 0.32,0.523 0.437,0.812 0.117,0.291 0.205,0.601 0.266,0.93 0.06,0.329 0.09,0.637 0.09,0.926 0,0.308 -0.033,0.65 -0.1,1.025 C 6.314,0.926 6.217,1.277 6.088,1.604 5.958,1.931 5.8,2.238 5.612,2.524 5.425,2.809 5.208,3.057 4.963,3.268 4.717,3.478 4.443,3.644 4.14,3.765 3.839,3.886 3.511,3.946 3.156,3.946 2.631,3.946 2.171,3.829 1.775,3.596 1.379,3.362 1.05,3.058 0.787,2.683 0.525,2.308 0.328,1.886 0.197,1.417 0.066,0.947 0,0.475 0,0 m -1.256,-0.235 c 0,0.359 0.039,0.723 0.118,1.094 0.08,0.371 0.2,0.73 0.363,1.078 0.163,0.348 0.367,0.674 0.612,0.978 C 0.083,3.22 0.37,3.486 0.7,3.715 1.029,3.944 1.402,4.125 1.819,4.256 2.236,4.387 2.695,4.453 3.2,4.453 3.721,4.453 4.195,4.387 4.622,4.252 5.049,4.12 5.431,3.939 5.768,3.712 6.106,3.485 6.399,3.219 6.648,2.912 6.895,2.606 7.101,2.278 7.265,1.931 7.43,1.583 7.553,1.224 7.635,0.853 7.715,0.482 7.756,0.119 7.756,-0.235 7.756,-0.588 7.715,-0.95 7.635,-1.319 7.553,-1.687 7.432,-2.047 7.272,-2.394 7.112,-2.742 6.908,-3.069 6.663,-3.375 6.417,-3.681 6.128,-3.949 5.797,-4.179 5.465,-4.407 5.093,-4.589 4.677,-4.722 4.263,-4.856 3.805,-4.922 3.3,-4.922 c -0.542,0 -1.03,0.065 -1.465,0.193 -0.436,0.13 -0.823,0.306 -1.16,0.529 -0.337,0.222 -0.628,0.485 -0.872,0.787 -0.243,0.302 -0.444,0.626 -0.6,0.972 -0.156,0.346 -0.272,0.707 -0.347,1.085 -0.075,0.376 -0.112,0.751 -0.112,1.121"
               style="fill:#272252;fill-opacity:1;fill-rule:nonzero;stroke:none"
               id="path1188" />
          </g>
          <g
             id="g1190"
             transform="translate(373.5616,522.4672)">
            <path
               d="m 0,0 c 0.133,-0.008 0.262,-0.015 0.385,-0.021 0.122,-0.007 0.259,-0.006 0.409,0.002 0.349,0.013 0.669,0.057 0.959,0.135 0.29,0.077 0.54,0.196 0.75,0.359 0.211,0.162 0.374,0.372 0.491,0.629 0.116,0.256 0.175,0.569 0.175,0.94 0,0.642 -0.184,1.125 -0.554,1.453 C 2.248,3.824 1.669,3.987 0.881,3.987 0.639,3.987 0.458,3.951 0.338,3.878 0.217,3.805 0.131,3.702 0.081,3.569 0.031,3.436 0.005,3.275 0.003,3.087 0.001,2.9 0,2.692 0,2.463 Z M 0.869,-0.5 C 0.727,-0.508 0.583,-0.512 0.437,-0.509 0.292,-0.507 0.146,-0.5 0,-0.488 V -2.979 C 0,-3.214 -0.003,-3.413 -0.01,-3.58 -0.015,-3.747 -0.027,-3.885 -0.044,-3.994 l 0.925,0.05 V -4.5 H -2 v 0.419 c 0.242,0.009 0.423,0.052 0.544,0.131 0.12,0.08 0.206,0.187 0.256,0.326 0.05,0.137 0.076,0.301 0.078,0.491 0.002,0.189 0.003,0.396 0.003,0.622 v 5.535 c 0,0.176 0.004,0.341 0.009,0.497 0.007,0.156 0.018,0.299 0.035,0.429 L -2,3.894 v 0.568 c 0.483,0.009 0.969,0.015 1.456,0.019 0.488,0.004 0.98,0.003 1.475,-0.006 C 1.549,4.462 2.076,4.404 2.515,4.297 2.956,4.191 3.315,4.04 3.598,3.844 3.878,3.648 4.085,3.41 4.215,3.131 4.348,2.852 4.412,2.536 4.412,2.181 4.412,1.931 4.38,1.676 4.312,1.416 4.245,1.155 4.123,0.909 3.944,0.675 3.765,0.442 3.52,0.234 3.21,0.05 2.899,-0.133 2.5,-0.275 2.013,-0.375 2.179,-0.496 2.33,-0.65 2.463,-0.838 2.596,-1.026 2.742,-1.245 2.9,-1.496 l 0.875,-1.37 c 0.108,-0.171 0.213,-0.332 0.312,-0.479 0.101,-0.149 0.211,-0.277 0.328,-0.386 0.12,-0.108 0.253,-0.194 0.4,-0.257 0.148,-0.062 0.323,-0.093 0.523,-0.093 V -4.5 H 3.725 C 3.6,-4.391 3.487,-4.283 3.388,-4.175 3.287,-4.066 3.193,-3.954 3.103,-3.837 3.013,-3.721 2.927,-3.601 2.844,-3.478 2.761,-3.355 2.673,-3.222 2.581,-3.081 l -0.856,1.369 c -0.058,0.091 -0.119,0.19 -0.181,0.297 -0.063,0.106 -0.13,0.213 -0.2,0.321 -0.071,0.109 -0.146,0.214 -0.225,0.316 -0.08,0.102 -0.163,0.195 -0.25,0.278"
               style="fill:#272252;fill-opacity:1;fill-rule:nonzero;stroke:none"
               id="path1192" />
          </g>
          <g
             id="g1194"
             transform="translate(383.9162,521.4197)">
            <path
               d="M 0,0 -2.219,3.522 C -2.44,3.863 -2.602,4.15 -2.707,4.382 -2.811,4.613 -2.88,4.81 -2.913,4.972 L -3.706,4.941 V 5.51 h 3.3 V 5.085 C -0.702,5.085 -0.927,5.051 -1.082,4.982 -1.236,4.914 -1.335,4.817 -1.378,4.695 -1.423,4.572 -1.416,4.425 -1.36,4.254 -1.303,4.083 -1.211,3.896 -1.082,3.691 -0.923,3.438 -0.773,3.197 -0.631,2.97 -0.489,2.742 -0.348,2.519 -0.207,2.297 -0.064,2.077 0.082,1.852 0.235,1.623 0.386,1.394 0.555,1.152 0.738,0.897 H 0.763 C 1.716,2.715 2.286,3.79 2.469,4.122 2.651,4.456 2.773,4.666 2.831,4.754 2.889,4.841 2.95,4.919 3.013,4.985 L 2,4.941 V 5.51 H 4.612 V 5.085 C 4.4,5.072 4.211,5.031 4.043,4.96 3.876,4.89 3.72,4.786 3.575,4.65 3.429,4.514 3.288,4.346 3.152,4.144 3.018,3.941 2.337,2.688 1.113,0.381 1.108,-0.031 1.105,-0.52 1.102,-1.086 c -0.001,-0.564 0,-0.847 0.004,-0.847 0,-0.459 -0.012,-0.796 -0.037,-1.013 l 1.062,0.05 v -0.557 h -3.006 v 0.419 c 0.238,0.009 0.417,0.055 0.537,0.138 0.121,0.084 0.207,0.195 0.257,0.335 0.05,0.139 0.074,0.303 0.074,0.491 v 0.607 z"
               style="fill:#272252;fill-opacity:1;fill-rule:nonzero;stroke:none"
               id="path1196" />
          </g>
          <g
             id="g1198"
             transform="translate(230.5283,521.6564)">
            <path
               d="m 0,0 c 0.368,-0.889 -0.054,-1.907 -0.942,-2.275 -0.889,-0.368 -1.908,0.054 -2.276,0.942 -0.368,0.889 0.054,1.907 0.943,2.275 C -1.387,1.31 -0.368,0.888 0,0"
               style="fill:#3eb7ac;fill-opacity:1;fill-rule:nonzero;stroke:none"
               id="path1200" />
          </g>
          <g
             id="g1202"
             transform="translate(271.7754,538.7412)">
            <path
               d="m 0,0 c 0.368,-0.888 -0.054,-1.907 -0.943,-2.275 -0.888,-0.368 -1.906,0.054 -2.275,0.942 -0.368,0.889 0.054,1.908 0.943,2.276 C -1.387,1.311 -0.368,0.889 0,0"
               style="fill:#3eb7ac;fill-opacity:1;fill-rule:nonzero;stroke:none"
               id="path1204" />
          </g>
          <g
             id="g1206"
             transform="translate(230.5283,537.4085)">
            <path
               d="m 0,0 c -0.368,-0.888 -1.387,-1.31 -2.275,-0.943 -0.889,0.369 -1.311,1.387 -0.943,2.276 0.368,0.888 1.387,1.31 2.276,0.942 C -0.054,1.907 0.368,0.889 0,0"
               style="fill:#3eb7ac;fill-opacity:1;fill-rule:nonzero;stroke:none"
               id="path1208" />
          </g>
          <g
             id="g1210"
             transform="translate(271.7959,520.2928)">
            <path
               d="m 0,0 c -0.368,-0.889 -1.388,-1.312 -2.277,-0.943 -0.89,0.368 -1.312,1.388 -0.944,2.277 0.369,0.889 1.388,1.312 2.278,0.943 C -0.054,1.909 0.368,0.889 0,0"
               style="fill:#3eb7ac;fill-opacity:1;fill-rule:nonzero;stroke:none"
               id="path1212" />
          </g>
          <g
             id="g1214"
             transform="translate(258.7518,551.7648)">
            <path
               d="M 0,0 C 0.889,-0.368 1.311,-1.387 0.943,-2.275 0.575,-3.164 -0.444,-3.586 -1.333,-3.218 -2.221,-2.85 -2.643,-1.831 -2.275,-0.943 -1.907,-0.054 -0.888,0.368 0,0"
               style="fill:#3eb7ac;fill-opacity:1;fill-rule:nonzero;stroke:none"
               id="path1216" />
          </g>
          <g
             id="g1218"
             transform="translate(241.6669,510.5177)">
            <path
               d="M 0,0 C 0.888,-0.368 1.31,-1.387 0.942,-2.275 0.574,-3.164 -0.444,-3.586 -1.333,-3.218 -2.221,-2.85 -2.643,-1.831 -2.275,-0.943 -1.907,-0.054 -0.889,0.368 0,0"
               style="fill:#3eb7ac;fill-opacity:1;fill-rule:nonzero;stroke:none"
               id="path1220" />
          </g>
          <g
             id="g1222"
             transform="translate(257.4264,510.478)">
            <path
               d="M 0,0 C 0.889,0.368 1.909,-0.054 2.277,-0.943 2.646,-1.833 2.223,-2.852 1.334,-3.221 0.445,-3.589 -0.575,-3.167 -0.943,-2.277 -1.312,-1.388 -0.889,-0.368 0,0"
               style="fill:#3eb7ac;fill-opacity:1;fill-rule:nonzero;stroke:none"
               id="path1224" />
          </g>
          <g
             id="g1226"
             transform="translate(240.3339,551.7648)">
            <path
               d="M 0,0 C 0.889,0.368 1.907,-0.054 2.276,-0.943 2.643,-1.831 2.221,-2.85 1.333,-3.218 0.444,-3.586 -0.574,-3.164 -0.942,-2.275 -1.31,-1.387 -0.888,-0.368 0,0"
               style="fill:#3eb7ac;fill-opacity:1;fill-rule:nonzero;stroke:none"
               id="path1228" />
          </g>
          <g
             id="g1230"
             transform="translate(235.2122,529.5103)">
            <path
               d="m 0,0 c 0,-0.67 -0.543,-1.213 -1.212,-1.213 -0.67,0 -1.213,0.543 -1.213,1.213 0,0.67 0.543,1.212 1.213,1.212 C -0.543,1.212 0,0.67 0,0"
               style="fill:#8390c8;fill-opacity:1;fill-rule:nonzero;stroke:none"
               id="path1232" />
          </g>
          <g
             id="g1234"
             transform="translate(266.2988,529.5103)">
            <path
               d="m 0,0 c 0,-0.67 -0.543,-1.213 -1.213,-1.213 -0.669,0 -1.212,0.543 -1.212,1.213 0,0.67 0.543,1.212 1.212,1.212 C -0.543,1.212 0,0.67 0,0"
               style="fill:#8390c8;fill-opacity:1;fill-rule:nonzero;stroke:none"
               id="path1236" />
          </g>
          <g
             id="g1238"
             transform="translate(239.4096,539.6437)">
            <path
               d="m 0,0 c -0.474,-0.474 -1.241,-0.474 -1.715,0 -0.473,0.473 -0.473,1.241 0,1.715 0.474,0.473 1.241,0.473 1.715,0 C 0.473,1.241 0.473,0.473 0,0"
               style="fill:#8390c8;fill-opacity:1;fill-rule:nonzero;stroke:none"
               id="path1240" />
          </g>
          <g
             id="g1242"
             transform="translate(261.3911,517.6623)">
            <path
               d="m 0,0 c -0.474,-0.474 -1.241,-0.474 -1.715,0 -0.473,0.474 -0.473,1.241 0,1.715 0.474,0.473 1.241,0.473 1.715,0 C 0.473,1.241 0.473,0.474 0,0"
               style="fill:#8390c8;fill-opacity:1;fill-rule:nonzero;stroke:none"
               id="path1244" />
          </g>
          <g
             id="g1246"
             transform="translate(239.4096,519.3769)">
            <path
               d="m 0,0 c 0.473,-0.473 0.473,-1.241 0,-1.715 -0.474,-0.473 -1.241,-0.473 -1.715,0 -0.473,0.474 -0.473,1.242 0,1.715 0.474,0.474 1.241,0.474 1.715,0"
               style="fill:#8390c8;fill-opacity:1;fill-rule:nonzero;stroke:none"
               id="path1248" />
          </g>
          <g
             id="g1250"
             transform="translate(261.3911,541.3584)">
            <path
               d="m 0,0 c 0.473,-0.474 0.473,-1.241 0,-1.715 -0.474,-0.474 -1.241,-0.474 -1.715,0 -0.473,0.474 -0.473,1.241 0,1.715 0.474,0.474 1.241,0.474 1.715,0"
               style="fill:#8390c8;fill-opacity:1;fill-rule:nonzero;stroke:none"
               id="path1252" />
          </g>
          <g
             id="g1254"
             transform="translate(249.543,515.1796)">
            <path
               d="m 0,0 c 0.67,0 1.213,-0.543 1.213,-1.212 0,-0.67 -0.543,-1.213 -1.213,-1.213 -0.67,0 -1.213,0.543 -1.213,1.213 C -1.213,-0.543 -0.67,0 0,0"
               style="fill:#8390c8;fill-opacity:1;fill-rule:nonzero;stroke:none"
               id="path1256" />
          </g>
          <g
             id="g1258"
             transform="translate(249.543,546.2661)">
            <path
               d="M 0,0 C 0.67,0 1.213,-0.543 1.213,-1.213 1.213,-1.882 0.67,-2.425 0,-2.425 c -0.67,0 -1.213,0.543 -1.213,1.212 C -1.213,-0.543 -0.67,0 0,0"
               style="fill:#8390c8;fill-opacity:1;fill-rule:nonzero;stroke:none"
               id="path1260" />
          </g>
          <g
             id="g1262"
             transform="translate(236.3033,524.0259)">
            <path
               d="M 0,0 C 0.256,-0.618 -0.038,-1.328 -0.656,-1.584 -1.275,-1.84 -1.984,-1.547 -2.241,-0.928 -2.497,-0.309 -2.203,0.4 -1.584,0.656 -0.966,0.913 -0.256,0.619 0,0"
               style="fill:#532c77;fill-opacity:1;fill-rule:nonzero;stroke:none"
               id="path1264" />
          </g>
          <g
             id="g1266"
             transform="translate(265.0233,535.9224)">
            <path
               d="m 0,0 c 0.256,-0.619 -0.038,-1.328 -0.656,-1.584 -0.619,-0.257 -1.328,0.037 -1.585,0.656 -0.256,0.619 0.038,1.328 0.657,1.584 C -0.966,0.912 -0.256,0.619 0,0"
               style="fill:#532c77;fill-opacity:1;fill-rule:nonzero;stroke:none"
               id="path1268" />
          </g>
          <g
             id="g1270"
             transform="translate(236.3033,534.9943)">
            <path
               d="M 0,0 C -0.256,-0.618 -0.966,-0.912 -1.584,-0.656 -2.203,-0.4 -2.497,0.309 -2.241,0.928 -1.984,1.547 -1.275,1.841 -0.656,1.584 -0.038,1.328 0.256,0.619 0,0"
               style="fill:#532c77;fill-opacity:1;fill-rule:nonzero;stroke:none"
               id="path1272" />
          </g>
          <g
             id="g1274"
             transform="translate(265.0233,523.0983)">
            <path
               d="M 0,0 C -0.256,-0.619 -0.966,-0.913 -1.584,-0.656 -2.203,-0.4 -2.497,0.309 -2.241,0.928 -1.984,1.547 -1.275,1.84 -0.656,1.584 -0.038,1.328 0.256,0.619 0,0"
               style="fill:#532c77;fill-opacity:1;fill-rule:nonzero;stroke:none"
               id="path1276" />
          </g>
          <g
             id="g1278"
             transform="translate(244.059,516.2706)">
            <path
               d="M 0,0 C 0.619,-0.256 0.912,-0.966 0.656,-1.584 0.4,-2.203 -0.31,-2.497 -0.928,-2.241 -1.547,-1.984 -1.84,-1.275 -1.584,-0.656 -1.328,-0.038 -0.619,0.256 0,0"
               style="fill:#532c77;fill-opacity:1;fill-rule:nonzero;stroke:none"
               id="path1280" />
          </g>
          <g
             id="g1282"
             transform="translate(255.955,544.9907)">
            <path
               d="M 0,0 C 0.619,-0.256 0.912,-0.966 0.656,-1.584 0.4,-2.203 -0.309,-2.497 -0.928,-2.241 -1.547,-1.984 -1.84,-1.275 -1.584,-0.656 -1.328,-0.038 -0.618,0.256 0,0"
               style="fill:#532c77;fill-opacity:1;fill-rule:nonzero;stroke:none"
               id="path1284" />
          </g>
          <g
             id="g1286"
             transform="translate(255.027,516.2706)">
            <path
               d="M 0,0 C 0.619,0.256 1.328,-0.038 1.584,-0.656 1.841,-1.275 1.547,-1.984 0.928,-2.241 0.31,-2.497 -0.4,-2.203 -0.656,-1.584 -0.912,-0.966 -0.618,-0.256 0,0"
               style="fill:#532c77;fill-opacity:1;fill-rule:nonzero;stroke:none"
               id="path1288" />
          </g>
          <g
             id="g1290"
             transform="translate(243.1309,544.9907)">
            <path
               d="M 0,0 C 0.618,0.256 1.328,-0.038 1.584,-0.656 1.84,-1.275 1.547,-1.984 0.928,-2.241 0.309,-2.497 -0.4,-2.203 -0.656,-1.584 -0.912,-0.966 -0.619,-0.256 0,0"
               style="fill:#532c77;fill-opacity:1;fill-rule:nonzero;stroke:none"
               id="path1292" />
          </g>
          <g
             id="g1294"
             transform="translate(234.9898,544.0856)">
            <path
               d="m 0,0 c -0.68,-0.68 -1.783,-0.68 -2.463,0 -0.68,0.68 -0.68,1.783 0,2.463 0.68,0.68 1.783,0.68 2.463,0 C 0.68,1.783 0.68,0.68 0,0"
               style="fill:#532c77;fill-opacity:1;fill-rule:nonzero;stroke:none"
               id="path1296" />
          </g>
          <g
             id="g1298"
             transform="translate(266.5747,512.4786)">
            <path
               d="m 0,0 c -0.681,-0.681 -1.784,-0.681 -2.465,0 -0.681,0.681 -0.681,1.784 0,2.465 0.681,0.681 1.784,0.681 2.465,0 C 0.681,1.784 0.681,0.681 0,0"
               style="fill:#532c77;fill-opacity:1;fill-rule:nonzero;stroke:none"
               id="path1300" />
          </g>
          <g
             id="g1302"
             transform="translate(234.9898,514.9792)">
            <path
               d="m 0,0 c 0.68,-0.68 0.68,-1.783 0,-2.463 -0.68,-0.68 -1.783,-0.68 -2.463,0 -0.68,0.68 -0.68,1.783 0,2.463 0.68,0.68 1.783,0.68 2.463,0"
               style="fill:#532c77;fill-opacity:1;fill-rule:nonzero;stroke:none"
               id="path1304" />
          </g>
        </g>
      </g>
      <g
         id="g1306">
        <g
           id="g1308"
           clip-path="url(#clipPath1312)">
          <g
             id="g1314"
             transform="translate(266.5591,546.5485)">
            <path
               d="m 0,0 c 0.68,-0.68 0.68,-1.783 0,-2.463 -0.68,-0.68 -1.783,-0.68 -2.463,0 -0.68,0.68 -0.68,1.783 0,2.463 0.68,0.68 1.783,0.68 2.463,0"
               style="fill:#532c77;fill-opacity:1;fill-rule:nonzero;stroke:none"
               id="path1316" />
          </g>
          <g
             id="g1318"
             transform="translate(228.9615,529.5324)">
            <path
               d="m 0,0 c 0,-0.962 -0.78,-1.742 -1.741,-1.742 -0.962,0 -1.742,0.78 -1.742,1.742 0,0.962 0.78,1.742 1.742,1.742 C -0.78,1.742 0,0.962 0,0"
               style="fill:#532c77;fill-opacity:1;fill-rule:nonzero;stroke:none"
               id="path1320" />
          </g>
        </g>
      </g>
      <g
         id="g1322">
        <g
           id="g1324"
           clip-path="url(#clipPath1328)">
          <g
             id="g1330"
             transform="translate(273.6072,529.5324)">
            <path
               d="m 0,0 c 0,-0.962 -0.78,-1.742 -1.742,-1.742 -0.961,0 -1.741,0.78 -1.741,1.742 0,0.962 0.78,1.742 1.741,1.742 C -0.78,1.742 0,0.962 0,0"
               style="fill:#532c77;fill-opacity:1;fill-rule:nonzero;stroke:none"
               id="path1332" />
          </g>
        </g>
      </g>
      <g
         id="g1334">
        <g
           id="g1336"
           clip-path="url(#clipPath1340)">
          <g
             id="g1342"
             transform="translate(249.543,508.91)">
            <path
               d="m 0,0 c 0.963,0 1.743,-0.781 1.743,-1.743 0,-0.963 -0.78,-1.743 -1.743,-1.743 -0.963,0 -1.743,0.78 -1.743,1.743 C -1.743,-0.781 -0.963,0 0,0"
               style="fill:#532c77;fill-opacity:1;fill-rule:nonzero;stroke:none"
               id="path1344" />
          </g>
          <g
             id="g1346"
             transform="translate(249.543,553.5966)">
            <path
               d="m 0,0 c 0.962,0 1.742,-0.78 1.742,-1.742 0,-0.961 -0.78,-1.741 -1.742,-1.741 -0.962,0 -1.742,0.78 -1.742,1.741 C -1.742,-0.78 -0.962,0 0,0"
               style="fill:#532c77;fill-opacity:1;fill-rule:nonzero;stroke:none"
               id="path1348" />
          </g>
        </g>
      </g>
      <g
         id="g1350">
        <g
           id="g1352"
           clip-path="url(#clipPath1356)">
          <g
             id="g1358"
             transform="translate(240.1344,543.7335)">
            <path
               d="m 0,0 c -0.665,-0.452 -1.57,-0.279 -2.021,0.385 -0.452,0.665 -0.28,1.57 0.385,2.022 0.665,0.452 1.57,0.279 2.021,-0.386 C 0.837,1.356 0.665,0.452 0,0"
               style="fill:#532c77;fill-opacity:1;fill-rule:nonzero;stroke:none"
               id="path1360" />
          </g>
          <g
             id="g1362"
             transform="translate(260.8446,512.8803)">
            <path
               d="M 0,0 C -0.665,-0.452 -1.569,-0.279 -2.021,0.385 -2.473,1.05 -2.3,1.955 -1.636,2.407 -0.971,2.859 -0.066,2.686 0.386,2.021 0.837,1.356 0.665,0.452 0,0"
               style="fill:#532c77;fill-opacity:1;fill-rule:nonzero;stroke:none"
               id="path1364" />
          </g>
          <g
             id="g1366"
             transform="translate(252.7652,546.4025)">
            <path
               d="m 0,0 c -0.789,0.15 -1.307,0.912 -1.156,1.702 0.15,0.789 0.912,1.307 1.701,1.157 C 1.335,2.708 1.853,1.946 1.702,1.157 1.551,0.367 0.789,-0.151 0,0"
               style="fill:#532c77;fill-opacity:1;fill-rule:nonzero;stroke:none"
               id="path1368" />
          </g>
          <g
             id="g1370"
             transform="translate(245.7753,509.7596)">
            <path
               d="M 0,0 C -0.789,0.15 -1.307,0.912 -1.157,1.702 -1.006,2.491 -0.244,3.009 0.546,2.859 1.335,2.708 1.853,1.946 1.702,1.157 1.551,0.367 0.789,-0.151 0,0"
               style="fill:#532c77;fill-opacity:1;fill-rule:nonzero;stroke:none"
               id="path1372" />
          </g>
          <g
             id="g1374"
             transform="translate(232.6508,532.7325)">
            <path
               d="m 0,0 c -0.15,-0.789 -0.912,-1.307 -1.702,-1.157 -0.789,0.151 -1.307,0.913 -1.157,1.703 0.151,0.789 0.913,1.307 1.702,1.156 C -0.367,1.551 0.15,0.789 0,0"
               style="fill:#532c77;fill-opacity:1;fill-rule:nonzero;stroke:none"
               id="path1376" />
          </g>
          <g
             id="g1378"
             transform="translate(269.2937,525.7426)">
            <path
               d="m 0,0 c -0.15,-0.789 -0.912,-1.307 -1.702,-1.157 -0.789,0.151 -1.307,0.913 -1.157,1.702 0.151,0.79 0.913,1.308 1.702,1.157 C -0.367,1.551 0.15,0.789 0,0"
               style="fill:#532c77;fill-opacity:1;fill-rule:nonzero;stroke:none"
               id="path1380" />
          </g>
          <g
             id="g1382"
             transform="translate(235.3198,519.8444)">
            <path
               d="m 0,0 c 0.452,-0.665 0.279,-1.57 -0.385,-2.021 -0.665,-0.452 -1.57,-0.28 -2.022,0.385 -0.452,0.665 -0.279,1.57 0.386,2.021 C -1.357,0.837 -0.452,0.665 0,0"
               style="fill:#532c77;fill-opacity:1;fill-rule:nonzero;stroke:none"
               id="path1384" />
          </g>
          <g
             id="g1386"
             transform="translate(266.1729,540.8119)">
            <path
               d="m 0,0 c 0.452,-0.665 0.279,-1.57 -0.385,-2.021 -0.665,-0.452 -1.57,-0.279 -2.022,0.385 -0.451,0.665 -0.279,1.57 0.386,2.022 C -1.357,0.837 -0.452,0.665 0,0"
               style="fill:#532c77;fill-opacity:1;fill-rule:nonzero;stroke:none"
               id="path1388" />
          </g>
          <g
             id="g1390"
             transform="translate(235.4271,538.9515)">
            <path
               d="m 0,0 c -0.441,-0.672 -1.343,-0.858 -2.015,-0.417 -0.672,0.441 -0.858,1.343 -0.417,2.015 0.441,0.671 1.343,0.858 2.015,0.417 C 0.255,1.574 0.441,0.672 0,0"
               style="fill:#532c77;fill-opacity:1;fill-rule:nonzero;stroke:none"
               id="path1392" />
          </g>
          <g
             id="g1394"
             transform="translate(266.3484,518.4713)">
            <path
               d="m 0,0 c -0.441,-0.672 -1.343,-0.859 -2.015,-0.417 -0.672,0.441 -0.859,1.343 -0.417,2.014 0.441,0.672 1.343,0.859 2.015,0.418 C 0.255,1.574 0.441,0.672 0,0"
               style="fill:#532c77;fill-opacity:1;fill-rule:nonzero;stroke:none"
               id="path1396" />
          </g>
          <g
             id="g1398"
             transform="translate(246.0557,546.3497)">
            <path
               d="M 0,0 C -0.787,-0.163 -1.557,0.343 -1.72,1.13 -1.883,1.917 -1.377,2.687 -0.59,2.85 0.197,3.013 0.967,2.507 1.13,1.72 1.293,0.933 0.787,0.163 0,0"
               style="fill:#532c77;fill-opacity:1;fill-rule:nonzero;stroke:none"
               id="path1400" />
          </g>
          <g
             id="g1402"
             transform="translate(253.6203,509.8211)">
            <path
               d="M 0,0 C -0.787,-0.163 -1.557,0.343 -1.72,1.13 -1.883,1.917 -1.377,2.687 -0.59,2.85 0.197,3.012 0.967,2.507 1.13,1.72 1.293,0.933 0.787,0.163 0,0"
               style="fill:#532c77;fill-opacity:1;fill-rule:nonzero;stroke:none"
               id="path1404" />
          </g>
          <g
             id="g1406"
             transform="translate(269.2322,533.5876)">
            <path
               d="m 0,0 c 0.163,-0.787 -0.343,-1.557 -1.13,-1.72 -0.787,-0.163 -1.557,0.343 -1.72,1.13 -0.163,0.787 0.343,1.557 1.13,1.72 C -0.933,1.293 -0.163,0.787 0,0"
               style="fill:#532c77;fill-opacity:1;fill-rule:nonzero;stroke:none"
               id="path1408" />
          </g>
          <g
             id="g1410"
             transform="translate(232.7037,526.023)">
            <path
               d="m 0,0 c 0.163,-0.787 -0.343,-1.557 -1.13,-1.72 -0.787,-0.163 -1.557,0.343 -1.72,1.13 -0.163,0.787 0.343,1.557 1.13,1.72 C -0.933,1.293 -0.163,0.787 0,0"
               style="fill:#532c77;fill-opacity:1;fill-rule:nonzero;stroke:none"
               id="path1412" />
          </g>
          <g
             id="g1414"
             transform="translate(240.1014,515.137)">
            <path
               d="m 0,0 c 0.672,-0.441 0.859,-1.343 0.417,-2.015 -0.441,-0.672 -1.343,-0.858 -2.015,-0.417 -0.671,0.441 -0.858,1.343 -0.417,2.015 C -1.574,0.255 -0.672,0.441 0,0"
               style="fill:#532c77;fill-opacity:1;fill-rule:nonzero;stroke:none"
               id="path1416" />
          </g>
          <g
             id="g1418"
             transform="translate(260.5821,546.3157)">
            <path
               d="m 0,0 c 0.672,-0.441 0.859,-1.343 0.417,-2.015 -0.441,-0.672 -1.343,-0.859 -2.014,-0.417 -0.672,0.441 -0.859,1.343 -0.418,2.015 C -1.574,0.255 -0.672,0.441 0,0"
               style="fill:#532c77;fill-opacity:1;fill-rule:nonzero;stroke:none"
               id="path1420" />
          </g>
          <g
             id="g1422"
             transform="translate(243.3489,538.7505)">
            <path
               d="M 0,0 C -0.432,-0.29 -1.016,-0.174 -1.306,0.258 -1.596,0.689 -1.48,1.274 -1.048,1.564 -0.617,1.853 -0.032,1.738 0.258,1.306 0.547,0.874 0.432,0.289 0,0"
               style="fill:#272252;fill-opacity:1;fill-rule:nonzero;stroke:none"
               id="path1424" />
          </g>
          <g
             id="g1426"
             transform="translate(256.7852,518.7066)">
            <path
               d="M 0,0 C -0.432,-0.289 -1.016,-0.174 -1.306,0.258 -1.595,0.69 -1.48,1.274 -1.048,1.563 -0.616,1.853 -0.032,1.738 0.258,1.306 0.547,0.874 0.432,0.289 0,0"
               style="fill:#272252;fill-opacity:1;fill-rule:nonzero;stroke:none"
               id="path1428" />
          </g>
          <g
             id="g1430"
             transform="translate(240.3028,523.3162)">
            <path
               d="m 0,0 c 0.289,-0.432 0.174,-1.016 -0.258,-1.306 -0.432,-0.29 -1.016,-0.174 -1.306,0.258 -0.289,0.431 -0.174,1.016 0.258,1.306 C -0.874,0.547 -0.289,0.432 0,0"
               style="fill:#272252;fill-opacity:1;fill-rule:nonzero;stroke:none"
               id="path1432" />
          </g>
          <g
             id="g1434"
             transform="translate(260.3467,536.7525)">
            <path
               d="M 0,0 C 0.289,-0.432 0.174,-1.016 -0.258,-1.306 -0.69,-1.595 -1.274,-1.48 -1.564,-1.048 -1.853,-0.616 -1.738,-0.032 -1.306,0.258 -0.874,0.547 -0.289,0.432 0,0"
               style="fill:#272252;fill-opacity:1;fill-rule:nonzero;stroke:none"
               id="path1436" />
          </g>
          <g
             id="g1438"
             transform="translate(238.6295,531.6642)">
            <path
               d="m 0,0 c -0.101,-0.51 -0.596,-0.842 -1.106,-0.741 -0.51,0.1 -0.842,0.595 -0.741,1.105 0.101,0.51 0.596,0.842 1.106,0.741 C -0.231,1.005 0.101,0.51 0,0"
               style="fill:#272252;fill-opacity:1;fill-rule:nonzero;stroke:none"
               id="path1440" />
          </g>
          <g
             id="g1442"
             transform="translate(262.3035,526.9921)">
            <path
               d="m 0,0 c -0.101,-0.51 -0.596,-0.842 -1.106,-0.742 -0.51,0.101 -0.841,0.596 -0.741,1.106 0.101,0.51 0.596,0.842 1.106,0.741 C -0.231,1.005 0.101,0.51 0,0"
               style="fill:#272252;fill-opacity:1;fill-rule:nonzero;stroke:none"
               id="path1444" />
          </g>
          <g
             id="g1446"
             transform="translate(247.3891,518.5968)">
            <path
               d="m 0,0 c 0.51,-0.101 0.842,-0.596 0.741,-1.106 -0.1,-0.51 -0.595,-0.842 -1.105,-0.741 -0.51,0.101 -0.842,0.596 -0.742,1.105 C -1.005,-0.231 -0.51,0.1 0,0"
               style="fill:#272252;fill-opacity:1;fill-rule:nonzero;stroke:none"
               id="path1448" />
          </g>
          <g
             id="g1450"
             transform="translate(252.0612,542.2708)">
            <path
               d="m 0,0 c 0.51,-0.101 0.842,-0.596 0.741,-1.106 -0.1,-0.51 -0.595,-0.841 -1.105,-0.741 -0.51,0.101 -0.842,0.596 -0.741,1.106 C -1.005,-0.231 -0.51,0.101 0,0"
               style="fill:#272252;fill-opacity:1;fill-rule:nonzero;stroke:none"
               id="path1452" />
          </g>
          <g
             id="g1454"
             transform="translate(238.6358,527.3237)">
            <path
               d="M 0,0 C 0.102,-0.51 -0.228,-1.006 -0.738,-1.108 -1.248,-1.21 -1.743,-0.88 -1.846,-0.37 -1.948,0.14 -1.618,0.635 -1.108,0.738 -0.598,0.84 -0.102,0.51 0,0"
               style="fill:#272252;fill-opacity:1;fill-rule:nonzero;stroke:none"
               id="path1456" />
          </g>
          <g
             id="g1458"
             transform="translate(262.2957,532.0669)">
            <path
               d="M 0,0 C 0.102,-0.51 -0.228,-1.006 -0.738,-1.108 -1.248,-1.21 -1.743,-0.88 -1.846,-0.37 -1.948,0.14 -1.617,0.635 -1.108,0.738 -0.598,0.84 -0.102,0.51 0,0"
               style="fill:#272252;fill-opacity:1;fill-rule:nonzero;stroke:none"
               id="path1460" />
          </g>
          <g
             id="g1462"
             transform="translate(240.2842,535.6765)">
            <path
               d="m 0,0 c -0.288,-0.432 -0.872,-0.55 -1.305,-0.262 -0.433,0.289 -0.55,0.873 -0.262,1.306 0.288,0.432 0.873,0.549 1.305,0.261 C 0.171,1.017 0.288,0.433 0,0"
               style="fill:#272252;fill-opacity:1;fill-rule:nonzero;stroke:none"
               id="path1464" />
          </g>
          <g
             id="g1466"
             transform="translate(260.3685,522.3004)">
            <path
               d="m 0,0 c -0.288,-0.433 -0.873,-0.55 -1.305,-0.261 -0.433,0.288 -0.55,0.872 -0.262,1.304 0.288,0.433 0.873,0.55 1.305,0.262 C 0.171,1.017 0.288,0.433 0,0"
               style="fill:#272252;fill-opacity:1;fill-rule:nonzero;stroke:none"
               id="path1468" />
          </g>
          <g
             id="g1470"
             transform="translate(256.7528,540.3358)">
            <path
               d="m 0,0 c 0.433,-0.288 0.55,-0.873 0.262,-1.305 -0.289,-0.433 -0.873,-0.55 -1.306,-0.262 -0.432,0.288 -0.549,0.873 -0.261,1.305 C -1.017,0.171 -0.433,0.288 0,0"
               style="fill:#272252;fill-opacity:1;fill-rule:nonzero;stroke:none"
               id="path1472" />
          </g>
          <g
             id="g1474"
             transform="translate(243.3768,520.2516)">
            <path
               d="m 0,0 c 0.432,-0.288 0.55,-0.872 0.262,-1.305 -0.289,-0.433 -0.873,-0.55 -1.306,-0.262 -0.432,0.288 -0.549,0.873 -0.261,1.305 C -1.017,0.171 -0.433,0.288 0,0"
               style="fill:#272252;fill-opacity:1;fill-rule:nonzero;stroke:none"
               id="path1476" />
          </g>
          <g
             id="g1478"
             transform="translate(251.7295,518.6031)">
            <path
               d="M 0,0 C 0.51,0.102 1.006,-0.228 1.108,-0.738 1.21,-1.248 0.88,-1.743 0.37,-1.846 -0.14,-1.948 -0.636,-1.618 -0.738,-1.108 -0.84,-0.598 -0.51,-0.102 0,0"
               style="fill:#272252;fill-opacity:1;fill-rule:nonzero;stroke:none"
               id="path1480" />
          </g>
          <g
             id="g1482"
             transform="translate(246.9863,542.2631)">
            <path
               d="M 0,0 C 0.51,0.102 1.006,-0.228 1.108,-0.738 1.21,-1.248 0.88,-1.743 0.37,-1.846 -0.14,-1.948 -0.636,-1.618 -0.738,-1.108 -0.84,-0.598 -0.51,-0.102 0,0"
               style="fill:#272252;fill-opacity:1;fill-rule:nonzero;stroke:none"
               id="path1484" />
          </g>
        </g>
      </g>
    </g>
  </g>
</svg>
